#!OML:ASF H:\Terrain\Patient Classification 1\Walking\steve\steve.ASF
:FULLY-SPECIFIED
:DEGREES
212
root 8.20737 15.8976 15.8293 12.0002 3.38141 -3.13177
lowerback -1.04462 -4.77415 1.12783
upperback -2.42134 -6.35255 1.48847
thorax -1.85492 -3.18448 0.934082
lowerneck -10.2722 2.34986 1.25108
upperneck 13.9738 2.82108 0.991519
head 5.923 1.5072 0.335138
rclavicle 5.42185e-014 1.19271e-015
rhumerus -73.5552 -13.1671 -33.6544
rradius 18.3197
rwrist 14.3009
rhand -15.333 -34.6229
rfingers 7.12502
rthumb 10.8435 -64.323
lclavicle 5.42185e-014 1.19271e-015
lhumerus 37.6266 1.83248 73.2956
lradius 27.2783
lwrist 22.4381
lhand -21.52 -13.1548
lfingers 7.12502
lthumb 4.87225 16.7691
rfemur -53.96 3.33133 25.5831
rtibia 29.2494
rfoot -19.6474 -0.794732
rtoes -12.3599
lfemur 9.00788 4.08804 -18.9398
ltibia 13.9467
lfoot -15.03 -14.4251
ltoes -6.29275
213
root 8.21501 15.8346 16.0877 11.872 3.92173 -3.08551
lowerback -1.35793 -5.12546 1.3018
upperback -2.12516 -6.83049 1.66726
thorax -1.37142 -3.42426 0.973307
lowerneck -10.8666 2.43762 1.36748
upperneck 13.9504 2.95016 0.735871
head 6.0234 1.55652 0.254167
rclavicle 2.58917e-014 -1.43125e-014
rhumerus -74.134 -12.2255 -32.6999
rradius 18.9743
rwrist 12.2791
rhand -15.0306 -35.3037
rfingers 7.12502
rthumb 11.1353 -64.9883
lclavicle 2.58917e-014 -1.43125e-014
lhumerus 39.2848 2.12841 72.6379
lradius 27.5464
lwrist 22.5053
lhand -21.1107 -13.0756
lfingers 7.12502
lthumb 5.26747 16.8389
rfemur -53.5615 3.27643 25.1565
rtibia 25.9554
rfoot -19.3295 -1.88915
rtoes -13.8744
lfemur 9.67911 4.00366 -18.6154
ltibia 14.8039
lfoot -15.3779 -15.2294
ltoes -5.87266
214
root 8.22145 15.7733 16.3406 11.6873 4.52099 -3.03808
lowerback -1.04008 -5.42202 1.55054
upperback -2.16607 -7.21614 1.83883
thorax -1.59738 -3.61952 1.04891
lowerneck -11.519 2.26931 1.21619
upperneck 14.1356 2.72041 0.837973
head 6.18951 1.44594 0.301942
rclavicle 1.14798e-014 2.38542e-015
rhumerus -74.9764 -10.2652 -33.0785
rradius 19.7936
rwrist 8.92064
rhand -14.4193 -35.9082
rfingers 7.12502
rthumb 11.7248 -65.5601
lclavicle 1.14798e-014 2.38542e-015
lhumerus 40.2215 1.96254 71.765
lradius 28.2577
lwrist 22.9523
lhand -21.0187 -12.7419
lfingers 7.12502
lthumb 5.35629 17.1704
rfemur -52.4939 3.22174 24.6841
rtibia 21.7897
rfoot -18.1614 -3.29991
rtoes -16.0421
lfemur 9.92442 4.2526 -18.0834
ltibia 16.5716
lfoot -15.3531 -17.0389
ltoes -3.21047
215
root 8.23248 15.6875 16.591 11.3687 4.95901 -2.72776
lowerback -0.558936 -5.66531 1.5417
upperback -2.19478 -7.52648 1.91076
thorax -1.88319 -3.77372 1.18344
lowerneck -10.7913 2.33738 1.20583
upperneck 13.3724 2.88575 0.471318
head 5.82928 1.49577 0.185828
rclavicle 6.09275e-014 -2.98177e-015
rhumerus -75.9006 -8.91739 -32.4293
rradius 20.1465
rwrist 6.80517
rhand -14.5292 -35.9134
rfingers 7.12502
rthumb 11.6188 -65.5713
lclavicle 6.09275e-014 -2.98177e-015
lhumerus 41.1721 1.73487 70.8973
lradius 28.8283
lwrist 23.6616
lhand -21.3203 -12.5715
lfingers 7.12502
lthumb 5.06509 17.348
rfemur -53.7045 3.07914 24.0044
rtibia 22.7281
rfoot -18.9277 -3.02201
rtoes -17.3518
lfemur 14.0399 4.379 -17.9738
ltibia 11.1132
lfoot -12.2644 -16.9489
ltoes -2.20066
216
root 8.25002 15.5992 16.8421 11.2661 5.23659 -2.23648
lowerback -0.50921 -5.90167 1.43238
upperback -2.08923 -7.84345 1.89161
thorax -1.78818 -3.93028 1.22442
lowerneck -10.2455 2.4908 1.4439
upperneck 12.4671 3.12587 0.0434246
head 5.4644 1.59263 0.0175576
rclavicle 9.21118e-014 -6.75868e-015
rhumerus -76.6207 -8.732 -29.9066
rradius 20.1105
rwrist 6.99968
rhand -14.1219 -35.7524
rfingers 7.12502
rthumb 12.0116 -65.3877
lclavicle 9.21118e-014 -6.75868e-015
lhumerus 42.409 1.66608 69.8168
lradius 29.1288
lwrist 24.4452
lhand -21.6442 -13.1642
lfingers 7.12502
lthumb 4.75231 16.7625
rfemur -55.414 2.8403 23.2235
rtibia 24.2425
rfoot -20.1168 -1.88302
rtoes -17.2266
lfemur 20.915 3.74478 -18.4831
ltibia 3.81667e-014
lfoot -7.67858 -14.4081
ltoes -3.08741
217
root 8.23125 15.4372 17.0651 9.28293 4.53022 7.40831
lowerback 2.84388 -6.10529 -8.92289
upperback -1.60832 -8.52635 -0.595536
thorax -2.06714 -4.11245 4.61792
lowerneck -10.4756 2.45321 1.65297
upperneck 12.1523 3.08278 -0.282099
head 5.41332 1.55773 -0.1206
rclavicle 5.95484e-014 2.88238e-015
rhumerus -77.4679 -8.43362 -27.5787
rradius 20.2895
rwrist 6.98659
rhand -13.4653 -35.9498
rfingers 7.12502
rthumb 12.6446 -65.5471
lclavicle 5.95484e-014 2.88238e-015
lhumerus 43.4744 1.27902 68.4273
lradius 29.5802
lwrist 25.6575
lhand -22.0501 -14.0286
lfingers 7.12502
lthumb 4.36039 15.9065
rfemur -55.6115 0.852383 13.2829
rtibia 26.6136
rfoot -19.8845 -1.05267
rtoes -19.9968
lfemur 24.3903 2.90719 -28.7538
ltibia 9.54166e-015
lfoot -6.8046 -14.4071
ltoes 1.53034
